<?xml version="1.0" standalone="no"?>
<!DOCTYPE svg PUBLIC "-//W3C//DTD SVG 20010904//EN"
 "http://www.w3.org/TR/2001/REC-SVG-20010904/DTD/svg10.dtd">
<svg version="1.0" xmlns="http://www.w3.org/2000/svg"
 width="512.000000pt" height="512.000000pt" viewBox="0 0 512.000000 512.000000"
 preserveAspectRatio="xMidYMid meet">
<metadata>
Created by potrace 1.14, written by Peter Selinger 2001-2017
</metadata>
<g transform="translate(0.000000,512.000000) scale(0.100000,-0.100000)"
fill="#000000" stroke="none">
<path d="M1405 5104 c-472 -71 -841 -348 -1017 -764 -89 -210 -113 -340 -113
-605 1 -155 4 -188 26 -305 37 -192 122 -405 225 -568 l40 -62 -1 -347 0 -347
-55 -39 c-118 -82 -215 -190 -273 -301 -17 -34 -31 -63 -32 -66 0 -3 -3 -9 -7
-15 -10 -17 -28 -86 -42 -162 -10 -55 -13 -242 -13 -779 -1 -678 0 -707 18
-725 18 -18 74 -19 1969 -19 1924 0 1951 0 1990 20 21 11 49 34 62 52 l23 33
3 637 3 637 -23 15 c-19 12 -108 14 -548 15 -289 0 -539 0 -556 1 -31 0 -31 1
-38 61 -3 33 -13 88 -22 122 -17 68 -89 225 -126 272 -46 60 -166 174 -216
205 l-52 32 0 520 0 520 58 57 c142 138 167 333 62 491 -9 14 -17 41 -17 60
-6 292 -28 504 -63 595 -7 17 -13 38 -16 49 -7 35 -73 162 -124 237 -81 120
-252 281 -350 331 -14 7 -41 22 -60 33 -175 102 -466 147 -715 109z"/>
<path d="M3924 3782 c-182 -2 -214 -5 -225 -19 -10 -11 -14 -47 -14 -117 l0
-101 -60 -30 c-34 -17 -82 -45 -108 -63 -27 -18 -52 -32 -57 -32 -4 0 -42 20
-83 44 -42 25 -81 46 -89 47 -31 6 -56 -16 -97 -89 -25 -42 -80 -138 -124
-212 -43 -74 -80 -146 -83 -160 -5 -31 9 -49 66 -79 25 -14 60 -34 79 -46 l34
-21 0 -129 c0 -118 -1 -131 -19 -140 -90 -47 -155 -92 -161 -112 -4 -17 15
-58 68 -151 129 -225 183 -317 194 -324 22 -16 53 -6 134 41 l84 49 51 -37
c29 -20 77 -47 107 -61 30 -13 56 -25 58 -27 2 -1 5 -50 5 -109 1 -93 4 -108
21 -120 17 -12 66 -14 282 -12 239 3 263 5 275 21 9 12 13 50 12 118 l-1 99
53 24 c29 13 79 42 111 64 58 40 59 40 89 24 16 -10 31 -19 34 -22 18 -19 114
-61 132 -58 20 3 93 105 140 198 7 14 29 52 49 85 19 33 38 67 42 75 4 8 17
31 28 50 24 39 32 70 21 85 -8 13 -76 61 -80 57 -1 -1 -13 5 -27 13 -14 8 -35
21 -47 29 -22 13 -23 19 -23 142 l1 128 83 51 c46 28 89 60 94 72 8 19 -6 48
-88 190 -54 92 -112 194 -129 225 -40 74 -60 83 -117 54 -24 -12 -63 -34 -86
-49 -51 -33 -62 -33 -98 -5 -15 11 -62 40 -104 62 l-76 41 -1 102 c0 65 -5
107 -13 116 -15 19 -73 23 -337 19z"/>
</g>
</svg>
